<svg width="40" height="48" viewBox="0 0 40 48" fill="none" xmlns="http://www.w3.org/2000/svg">
<path d="M38.154 34.7792C38.0366 34.8983 37.8016 34.8983 37.6842 35.0174C37.9191 35.3747 37.9191 35.8511 37.9191 36.2084C37.9191 39.4243 32.2805 42.0447 25.4673 42.0447C18.654 42.0447 13.0155 39.4243 13.0155 36.2084C13.0155 35.4938 13.2504 34.8983 13.7203 34.3027C12.7805 33.8263 12.0757 33.469 11.8408 33.2308C9.72633 34.4218 8.43416 35.9702 8.43416 37.5186C8.43416 41.33 15.4824 44.4268 24.0577 44.4268C32.633 44.4268 39.6812 41.33 39.6812 37.5186C39.5637 36.6849 39.0938 35.6129 38.154 34.7792Z" fill="#F4AC45"/>
<path d="M21.8257 28.5856C28.404 28.5856 33.6902 26.6799 33.6902 24.4169V22.1538C33.5727 24.536 28.2866 26.3226 21.8257 26.3226C15.3649 26.3226 10.0787 24.536 9.96127 22.273V24.536C9.96127 26.799 15.2474 28.5856 21.8257 28.5856Z" fill="#F4AC45"/>
<path d="M21.2384 30.9677C20.7685 30.3722 20.5336 29.8958 20.4161 29.4194C18.3016 29.3002 16.4221 28.9429 14.895 28.5856C13.7203 29.5385 12.898 30.134 12.898 30.134C12.898 30.134 17.7143 33.3499 24.645 33.8263C31.2233 34.3027 37.0968 31.4442 37.6842 31.0868L32.2806 27.5136C31.9281 27.6328 31.5757 27.871 31.2233 27.9901L34.8649 31.0868C31.9281 33.8263 24.1751 34.1836 21.2384 30.9677Z" fill="#F4AC45"/>
<path d="M21.9432 25.6079C28.5215 25.6079 33.8077 23.7022 33.8077 21.4392C33.8077 19.5335 30.0486 17.866 24.9974 17.3896C28.639 17.866 31.3408 19.1762 31.3408 20.6055C31.3408 22.5112 26.8769 24.0596 21.3559 24.0596C15.8348 24.0596 11.3709 22.5112 11.3709 20.6055C11.3709 19.7717 12.1932 19.0571 13.6028 18.4615C11.3709 19.1762 10.0787 20.2481 10.0787 21.4392C10.0787 23.7022 15.3649 25.6079 21.9432 25.6079Z" fill="#F4AC45"/>
<path d="M19.1239 21.3201C22.648 21.3201 25.4673 18.3424 25.4673 14.6501C25.4673 10.9578 22.648 7.98015 19.1239 7.98015C15.5998 7.98015 12.7805 10.9578 12.7805 14.6501C12.7805 18.3424 15.5998 21.3201 19.1239 21.3201ZM20.1812 8.69479C22.5305 8.69479 24.2926 10.6005 24.2926 12.9826C24.2926 15.3648 22.4131 17.2705 20.1812 17.2705C17.9492 17.2705 16.0697 15.3648 16.0697 12.9826C15.9522 10.7196 17.8318 8.69479 20.1812 8.69479Z" fill="#F4AC45"/>
<path d="M19.7113 6.78908V0.952853C19.7113 0.476426 19.3589 0 18.889 0C18.4191 0 18.0667 0.35732 18.0667 0.952853V6.90819C18.4191 6.90819 18.7715 6.78908 19.1239 6.78908C19.2414 6.78908 19.4763 6.78908 19.7113 6.78908Z" fill="#F4AC45"/>
<path d="M3.85284 38.3524C3.85284 35.4938 7.4944 33.1117 13.0155 31.8015L13.133 33.1117C13.133 33.1117 17.9492 36.3275 24.8799 36.804C31.8107 37.2804 37.9191 34.0645 37.9191 34.0645L37.6842 31.5633C35.4522 32.5161 29.9311 34.5409 24.5275 34.1836C18.7715 33.7072 14.6601 31.6824 12.898 30.7295L13.0155 31.8015C5.84983 32.9926 0.681152 35.9702 0.681152 39.6625C0.681152 44.3077 9.13898 48 19.4763 48C27.9342 48 35.2173 45.4988 37.4492 42.0447C34.5125 44.4268 28.5215 46.0943 21.7083 46.0943C11.7233 45.9752 3.85284 42.5211 3.85284 38.3524Z" fill="#F4AC45"/>
</svg>
