<svg width="16" height="16" viewBox="0 0 16 16" fill="none" xmlns="http://www.w3.org/2000/svg">
<path d="M13 1C12.3475 1.00391 11.7147 1.21875 11.1953 1.61719C10.4656 0.640625 9.28439 0 8.00002 0C6.65939 0 5.53439 0.640625 4.80627 1.61719C3.90002 0.921875 2.68127 0.804688 1.66252 1.3125C0.636893 1.81625 -0.00388849 2.85938 1.77586e-05 4C1.77586e-05 5.30469 2.00002 10 2.00002 10H4.32658L3.50627 5.08437C3.46252 4.78437 3.64377 4.55312 3.91564 4.50625C4.18321 4.45644 4.44627 4.64175 4.49221 4.91531L5.34064 10H7.50002V5C7.50002 4.72363 7.72364 4.5 8.00002 4.5C8.27639 4.5 8.50002 4.72363 8.50002 5V10H10.66L11.5075 4.91563C11.5534 4.64219 11.8195 4.45688 12.0841 4.50656C12.3565 4.5515 12.5388 4.811 12.4931 5.08344L11.675 10H14C14 10 16 5.30312 16 4C16 2.34375 14.6563 1 13 1ZM2.00002 15C2.00002 15.55 2.45002 16 3.00002 16H13C13.55 16 14 15.55 14 15V11H2.00002V15Z" fill="#DB162F"/>
</svg>
