<svg width="43" height="32" viewBox="0 0 43 32" fill="none" xmlns="http://www.w3.org/2000/svg">
<path d="M42.1307 14.0513C42.0282 14.6667 41.4128 15.1795 40.4897 15.5897C40.7974 16.4103 41.2077 17.9487 41.4128 19.4872C38.4384 24 35.1564 26.8718 32.182 28.8205C30.8487 28.8205 29.5154 28.6154 28.0795 28.1026C32.4897 24.4103 34.4384 19.0769 35.0538 17.0256C34.9513 17.0256 34.8487 17.0256 34.8487 17.0256C32.0795 21.8462 29.0025 25.0256 25.9256 27.1795C25.5154 26.9744 25.1051 26.7692 24.6948 26.4615C23.8743 25.9487 23.259 25.4359 22.8487 24.9231C24.7974 22.5641 26.0282 20 26.7461 18.1538C27.4641 18.6667 28.2846 18.9744 29.2077 18.9744C31.4641 18.9744 33.2077 17.4359 33.2077 15.5897C33.2077 13.7436 31.4641 12.2051 29.2077 12.2051C26.9513 12.2051 25.2077 13.7436 25.2077 15.5897C25.2077 16.5128 25.6179 17.2308 26.2333 17.8462C24.7974 20.1026 23.3615 21.9487 21.8231 23.4872C20.5923 20.7179 22.8487 18.1538 23.8743 17.1282C19.6692 16.6154 16.6948 15.3846 16.3872 14.0513C16.3872 14.1538 16.3872 14.1538 16.3872 14.2564V28.5128C16.3872 28.7179 16.4897 28.9231 16.5923 29.1282V29.2308C16.6948 29.4359 16.9 29.5385 17.1051 29.7436C17.6179 30.1538 18.3359 30.4615 19.1564 30.7692C19.5666 30.8718 19.8743 30.9744 20.2846 31.0769C20.3872 31.0769 20.3872 31.0769 20.4897 31.1795C20.9 31.2821 21.3102 31.3846 21.7205 31.4872H21.8231C22.7461 31.6923 23.7718 31.7949 24.9 31.8974H25.0025C25.6179 32 26.2333 32 26.8487 32C26.9513 32 27.0538 32 27.1564 32C27.7718 32 28.4897 32 29.2077 32C29.3102 32 29.3102 32 29.4128 32C36.4897 32 42.1307 30.359 42.1307 28.4103V14.1538C42.1307 14.2564 42.1307 14.1538 42.1307 14.0513ZM29.7205 12.5128C31.259 12.5128 32.3872 13.5385 32.3872 14.8718C32.3872 16.1026 31.1564 17.2308 29.7205 17.2308C28.182 17.2308 27.0538 16.2051 27.0538 14.8718C26.9513 13.5385 28.182 12.5128 29.7205 12.5128ZM40.9 25.3333C40.0795 26.4615 38.4384 27.6923 36.3872 28.3077C38.8487 26.0513 40.5923 23.1795 41.6179 20.9231C41.7205 22.5641 41.6179 24.2051 40.9 25.3333Z" fill="#F4AC45"/>
<path d="M21.6179 9.64103C19.5666 9.64103 17.9256 11.0769 17.9256 12.8205C17.9256 14.5641 19.5666 16 21.6179 16C23.6692 16 25.3102 14.5641 25.3102 12.8205C25.3102 11.0769 23.6692 9.64103 21.6179 9.64103ZM22.1307 14.2564C20.6948 14.2564 19.6692 13.3333 19.6692 12.1026C19.6692 10.8718 20.7974 9.94872 22.1307 9.94872C23.5666 9.94872 24.5923 10.8718 24.5923 12.1026C24.5923 13.2308 23.4641 14.2564 22.1307 14.2564Z" fill="#F4AC45"/>
<path d="M29.4128 12C31.4641 12 33.1051 10.5641 33.1051 8.82051C33.1051 7.07692 31.4641 5.64103 29.4128 5.64103C27.3615 5.64103 25.7205 7.07692 25.7205 8.82051C25.7205 10.5641 27.3615 12 29.4128 12ZM29.9256 5.94872C31.3615 5.94872 32.3872 6.8718 32.3872 8.10256C32.3872 9.33333 31.259 10.2564 29.9256 10.2564C28.4897 10.2564 27.4641 9.33333 27.4641 8.10256C27.4641 6.8718 28.5923 5.94872 29.9256 5.94872Z" fill="#F4AC45"/>
<path d="M34.0282 9.94872C33.8231 10.4615 33.5154 10.9744 33.1051 11.3846C33.0025 11.6923 33.0025 11.8974 33.0025 12.2051C33.0025 13.9487 34.6436 15.3846 36.6948 15.3846C38.7461 15.3846 40.3872 13.9487 40.3872 12.2051C40.3872 10.4615 38.7461 9.02564 36.6948 9.02564C35.6692 9.02564 34.7461 9.33333 34.0282 9.94872ZM39.6692 11.4872C39.6692 12.7179 38.541 13.641 37.2077 13.641C35.7718 13.641 34.7461 12.7179 34.7461 11.4872C34.7461 10.2564 35.8743 9.33333 37.2077 9.33333C38.541 9.33333 39.6692 10.2564 39.6692 11.4872Z" fill="#F4AC45"/>
<path d="M35.6692 6.15385C37.1051 6.15385 38.1307 7.07692 38.1307 8.30769C38.1307 8.41026 38.1307 8.61538 38.1307 8.71795C38.3359 8.82051 38.6436 8.92308 38.8487 9.02564C38.8487 7.28205 37.2077 5.84615 35.1564 5.84615C34.4384 5.84615 33.8231 6.05128 33.3102 6.25641C33.5154 6.46154 33.6179 6.66667 33.8231 6.87179C34.2333 6.46154 34.9513 6.15385 35.6692 6.15385Z" fill="#F4AC45"/>
<path d="M25.7205 10.7692C25.6179 10.7692 25.6179 10.7692 25.5154 10.7692C25.8231 11.282 26.0282 11.7949 26.0282 12.3077C26.3359 12.2051 26.6436 12.1026 26.9513 11.8974C26.4384 11.5897 26.0282 11.282 25.7205 10.7692Z" fill="#F4AC45"/>
<path d="M21.6179 8.82051C22.0282 8.82051 22.3359 8.82051 22.7461 8.92308C22.7461 8.82051 22.7461 8.71795 22.7461 8.61539C22.7461 7.38462 23.8743 6.46154 25.2077 6.46154C25.4128 6.46154 25.6179 6.46154 25.7205 6.46154C25.7205 6.35897 25.8231 6.35897 25.8231 6.25641C25.4128 6.15385 25.0025 6.05128 24.5923 6.05128C22.7461 6.05128 21.2077 7.17949 20.9 8.71795C21.3102 8.92308 21.4128 8.82051 21.6179 8.82051Z" fill="#F4AC45"/>
<path d="M6.02818 2.97436C6.02818 2.87179 6.02818 2.76923 6.02818 2.66667C6.02818 1.64102 7.05382 0.820513 8.18203 0.820513C8.38716 0.820513 8.48972 0.820513 8.69485 0.820513L8.79741 0.717948C8.48972 0.615384 8.07946 0.615384 7.77177 0.615384C6.13075 0.615384 4.89998 1.64103 4.59228 2.87179C4.79741 2.87179 4.89998 2.87179 5.1051 2.87179C5.4128 2.87179 5.72049 2.87179 6.02818 2.97436Z" fill="#F4AC45"/>
<path d="M8.69485 4.51282C8.59228 4.51282 8.59228 4.51282 8.48972 4.51282C8.79741 4.92308 8.89998 5.33333 9.00254 5.84615C9.31023 5.74359 9.51536 5.64103 9.72049 5.4359C9.31023 5.33333 8.89998 4.92308 8.69485 4.51282Z" fill="#F4AC45"/>
<path d="M15.8743 3.79487C15.6692 4.30769 15.3615 4.71795 15.0538 5.02564C14.9513 5.23077 14.9513 5.53846 14.9513 5.74359C14.9513 7.28205 16.3872 8.51282 18.1307 8.51282C19.0538 8.51282 19.9769 8.10256 20.5923 7.58974C20.7974 7.28205 21.0025 6.97436 21.2077 6.76923C21.3102 6.46154 21.4128 6.15385 21.4128 5.74359C21.4128 4.20513 19.9769 2.97436 18.2333 2.97436C17.3102 2.97436 16.4897 3.28205 15.8743 3.79487ZM20.7974 5.1282C20.7974 6.15385 19.7718 6.97436 18.6436 6.97436C17.4128 6.97436 16.4897 6.15385 16.4897 5.1282C16.4897 4.10256 17.5154 3.28205 18.6436 3.28205C19.8743 3.28205 20.7974 4.10256 20.7974 5.1282Z" fill="#F4AC45"/>
<path d="M10.6436 19.6923C14.4384 16.4103 16.182 11.7949 16.6948 10.0513C16.5923 10.0513 16.5923 10.0513 16.4897 10.0513C14.1307 14.2564 11.3615 17.0256 8.79741 18.8718C8.38716 18.6667 8.07946 18.4615 7.66921 18.2564C6.95126 17.8462 6.43844 17.3333 6.02818 16.9231C7.66921 14.8718 8.79741 12.6154 9.4128 10.9744C10.0282 11.3846 10.7461 11.5897 11.5666 11.5897C13.5154 11.5897 15.0538 10.2564 15.0538 8.61539C15.0538 6.97436 13.5154 5.64103 11.5666 5.64103C9.61793 5.64103 8.07946 6.97436 8.07946 8.61539C8.07946 9.33333 8.38716 10.0513 9.00254 10.5641C7.77177 12.5128 6.43844 14.1538 5.20767 15.4872C4.18203 13.0256 6.13075 10.7692 7.05382 9.94872C5.51536 9.74359 4.18203 9.4359 3.05382 9.12821H2.95126C1.61793 8.61539 0.694849 8 0.592285 7.38461C0.592285 7.48718 0.592285 7.48718 0.592285 7.58974V20.1026C0.592285 20.1026 0.592285 20.1026 0.592285 20.2051V20.3077C0.592285 20.3077 0.592285 20.3077 0.592285 20.4103C0.592285 20.4103 0.592285 20.4103 0.592285 20.5128C0.592285 20.5128 0.592285 20.5128 0.592285 20.6154C0.592285 20.6154 0.592285 20.6154 0.592285 20.7179C0.592285 20.7179 0.592285 20.8205 0.694849 20.8205C1.72049 22.0513 5.20767 22.9744 9.61793 23.1795H9.72049C10.0282 23.1795 10.3359 23.1795 10.541 23.1795H10.6436C10.9513 23.1795 11.259 23.1795 11.5666 23.1795H11.6692C13.0025 23.1795 14.2333 23.0769 15.3615 22.9744L15.4641 19.3846C14.9513 19.6923 14.541 20 14.0282 20.3077C13.1051 20.3077 11.8743 20.1026 10.6436 19.6923ZM12.0795 6.05128C13.4128 6.05128 14.4384 6.97436 14.4384 8.10256C14.4384 9.23077 13.4128 10.1538 12.0795 10.1538C10.7461 10.1538 9.72049 9.23077 9.72049 8.10256C9.72049 6.97436 10.8487 6.05128 12.0795 6.05128Z" fill="#F4AC45"/>
<path d="M5.00254 9.12821C6.74613 9.12821 8.18203 7.89744 8.18203 6.35897C8.18203 4.82051 6.74613 3.58974 5.00254 3.58974C3.25895 3.58974 1.82305 4.82051 1.82305 6.35897C1.82305 7.79487 3.25895 9.12821 5.00254 9.12821ZM5.51536 3.79487C6.74613 3.79487 7.66921 4.61538 7.66921 5.64103C7.66921 6.66667 6.64357 7.48718 5.51536 7.48718C4.28459 7.48718 3.36152 6.66667 3.36152 5.64103C3.36152 4.61538 4.28459 3.79487 5.51536 3.79487Z" fill="#F4AC45"/>
<path d="M11.8743 5.53846C13.6179 5.53846 15.0538 4.30769 15.0538 2.76923C15.0538 1.23077 13.6179 0 11.8743 0C10.1307 0 8.69485 1.23077 8.69485 2.76923C8.59228 4.30769 10.0282 5.53846 11.8743 5.53846ZM12.2846 0.307692C13.5154 0.307692 14.4384 1.1282 14.4384 2.15385C14.4384 3.17949 13.4128 4 12.2846 4C11.0538 4 10.1307 3.17949 10.1307 2.15385C10.1307 1.1282 11.1564 0.307692 12.2846 0.307692Z" fill="#F4AC45"/>
<path d="M17.3102 0.51282C18.541 0.51282 19.4641 1.33333 19.4641 2.35897C19.4641 2.46154 19.4641 2.5641 19.4641 2.76923C19.6692 2.87179 19.8743 2.97436 20.0795 3.07692C20.0795 1.53846 18.6436 0.307692 16.9 0.307692C16.2846 0.307692 15.7718 0.410256 15.259 0.717948C15.4641 0.923077 15.5666 1.02564 15.6692 1.23077C16.0795 0.717948 16.5923 0.51282 17.3102 0.51282Z" fill="#F4AC45"/>
</svg>
