<svg width="64" height="32" viewBox="0 0 64 32" fill="none" xmlns="http://www.w3.org/2000/svg">
<path d="M23.4627 7.17307C20.8459 6.71338 22.3852 9.62474 22.3852 9.62474C22.3852 9.62474 26.2335 7.63276 23.4627 7.17307Z" fill="#F4AC45"/>
<path d="M18.0752 9.31828C18.0752 9.31828 20.5381 6.71338 17.7673 6.86661C14.9966 7.01984 18.0752 9.31828 18.0752 9.31828Z" fill="#F4AC45"/>
<path d="M15.3045 10.2377C15.3045 10.2377 14.073 7.3263 12.2259 8.55214C10.3787 9.77797 15.3045 10.2377 15.3045 10.2377Z" fill="#F4AC45"/>
<path d="M13.4573 11.9232C13.4573 11.9232 10.2248 9.62474 9.45514 11.157C8.68549 12.6893 13.4573 11.9232 13.4573 11.9232Z" fill="#F4AC45"/>
<path d="M9.14728 14.2216C9.60907 15.7539 13.3034 13.7619 13.3034 13.7619C13.3034 13.7619 8.68549 12.6893 9.14728 14.2216Z" fill="#F4AC45"/>
<path d="M28.3885 9.01182C26.6952 7.78599 25.1559 10.5441 25.1559 10.5441C25.1559 10.5441 30.0817 10.2377 28.3885 9.01182Z" fill="#F4AC45"/>
<path d="M28.8503 7.01984C26.8492 5.18108 26.6952 3.34232 28.6963 2.72941C30.6974 2.11649 30.6974 3.64878 33.776 3.49555C36.8546 3.34232 38.5478 1.04388 40.7028 1.50357C42.8578 1.96326 42.8578 2.57618 42.2421 4.10847C41.6264 5.64077 45.4747 4.2617 47.3218 5.48754C49.169 6.71338 47.6297 7.78599 47.6297 7.78599C53.3251 4.72139 47.0139 3.64878 45.6286 3.34232C44.3971 2.88263 45.7825 1.04388 42.2421 0.277729C38.7018 -0.33519 37.3164 1.81003 34.5457 1.81003C31.9289 1.81003 30.0817 -1.4078 25.6177 0.737418C21.3077 3.03586 28.8503 7.01984 28.8503 7.01984Z" fill="#F4AC45"/>
<path d="M32.5446 4.2617L33.6221 9.47152L34.8535 4.2617C34.2378 4.72139 32.5446 4.2617 32.5446 4.2617Z" fill="#F4AC45"/>
<path d="M41.1646 5.02785L35.6232 9.77797L41.9343 5.48754C41.3186 5.33431 41.1646 5.02785 41.1646 5.02785Z" fill="#F4AC45"/>
<path d="M34.5457 15.141C30.8513 13.4555 26.5413 14.0684 25.3099 16.2136C23.9245 18.2056 19.4606 16.5201 15.9202 17.5927C12.3798 18.6653 13.1494 21.4234 16.228 22.6493C19.3066 23.8751 20.0763 23.109 21.6156 24.1816C23.3088 25.2542 25.3099 29.0849 31.0053 27.0929C36.8546 25.101 32.8524 22.9557 33.9299 21.4234C35.0074 20.0444 38.24 16.8265 34.5457 15.141ZM30.2356 21.5767C32.5446 22.9557 34.0839 25.2542 29.312 25.8671C24.6942 26.48 24.8481 23.5687 25.7717 22.496C26.6952 21.4234 25.4638 21.117 23.6167 22.3428C21.9234 23.5687 16.382 22.8025 16.6898 20.3508C16.9977 17.8991 22.0774 17.133 23.6167 18.3588C25.1559 19.5847 26.0795 20.1976 27.0031 19.7379C27.9267 19.2782 25.4638 18.2056 26.3874 16.8265C27.311 15.4475 29.312 14.0684 32.8524 15.141C34.6996 15.6007 35.931 16.9798 35.3153 18.3588C34.6996 19.7379 32.8524 20.6573 31.0053 20.3508C29.1581 20.0444 27.7727 20.3508 30.2356 21.5767Z" fill="#F4AC45"/>
<path d="M51.7858 7.78599C58.0969 10.2377 61.9451 13.6087 61.9451 17.2862C61.9451 24.1816 48.5532 29.8511 32.2367 29.8511C15.7662 29.8511 2.52831 24.1816 2.52831 17.2862C2.52831 15.141 3.91367 12.9958 6.22262 11.3103C5.91476 12.0764 5.76083 12.6893 5.76083 13.4555C5.76083 14.5281 6.06869 15.4475 6.6844 16.3669L6.83833 16.5201C7.14619 16.9798 7.45405 17.4395 7.91584 17.8992L10.3787 17.133L31.7749 10.6974L32.0828 10.5441C30.0817 7.63276 25.1559 5.48754 19.3066 5.48754C13.6112 5.48754 8.68549 7.47953 6.6844 10.3909C2.83617 12.6893 0.681152 15.4475 0.681152 18.3588C0.681152 25.8671 14.8427 31.6898 32.2367 31.9963C49.6307 32.1495 63.7923 27.5526 63.7923 18.3588C63.6383 14.0684 59.0204 10.2377 51.7858 7.78599ZM20.3841 6.10046C25.4638 6.10046 29.7738 7.93922 31.621 10.5441L25.1559 12.0764C23.9245 11.157 22.2313 10.6974 20.2302 10.6974C16.6898 10.6974 13.7652 12.3829 13.7652 14.5281C13.7652 14.6813 13.7652 14.6813 13.7652 14.8346L8.99335 15.9072C8.53156 15.141 8.2237 14.3749 8.2237 13.4555C8.37763 9.31828 13.7652 6.10046 20.3841 6.10046Z" fill="#F4AC45"/>
<path d="M37.6242 16.9798C39.3175 18.8185 42.7039 20.0444 46.5522 20.0444C52.0936 20.0444 56.7115 17.4395 56.7115 14.0684C56.7115 10.8506 52.2476 8.09244 46.5522 8.09244C41.0107 8.09244 36.3928 10.6974 36.3928 14.0684C36.3928 14.2216 36.3928 14.3749 36.3928 14.5281C36.8546 13.7619 47.4757 21.5767 37.6242 16.9798ZM50.4004 14.3749C50.7083 14.3749 51.0161 14.5281 51.0161 14.8346C51.0161 14.9878 50.7083 15.2942 50.4004 15.2942C50.0925 15.2942 49.7847 15.141 49.7847 14.8346C49.7847 14.5281 50.0925 14.3749 50.4004 14.3749ZM47.7836 11.77C48.3993 11.77 48.8611 12.0764 48.8611 12.5361C48.8611 12.9958 48.3993 13.3023 47.7836 13.3023C47.1679 13.3023 46.7061 12.9958 46.7061 12.5361C46.7061 12.0764 47.1679 11.77 47.7836 11.77ZM46.5522 15.141C47.4757 15.141 48.2454 15.6007 48.2454 16.2136C48.2454 16.8265 47.4757 17.2862 46.5522 17.2862C45.6286 17.2862 44.8589 16.8265 44.8589 16.2136C44.8589 15.6007 45.6286 15.141 46.5522 15.141ZM43.0118 10.0844C44.0893 10.0844 44.8589 10.5441 44.8589 11.157C44.8589 11.77 43.9354 12.2296 43.0118 12.2296C41.9343 12.2296 41.1646 11.77 41.1646 11.157C41.1646 10.5441 41.9343 10.0844 43.0118 10.0844ZM39.6253 14.9878C38.24 14.9878 37.1625 14.3749 37.1625 13.6087C37.1625 12.8426 38.24 12.2296 39.6253 12.2296C41.0107 12.2296 42.0882 12.8426 42.0882 13.6087C42.2421 14.3749 41.0107 14.9878 39.6253 14.9878Z" fill="#F4AC45"/>
</svg>
