<svg width="23" height="23" viewBox="0 0 23 23" fill="none" xmlns="http://www.w3.org/2000/svg">
<path d="M0.5 11.75C0.5 16.6625 3.65 20.825 8 22.3625V1.1375C3.65 2.675 0.5 6.8375 0.5 11.75Z" fill="#428BC1"/>
<path d="M23 11.75C23 6.8375 19.8875 2.675 15.5 1.1375V22.3625C19.8875 20.825 23 16.6625 23 11.75Z" fill="#ED4C5C"/>
<path d="M8 22.3625C9.1625 22.775 10.4375 23 11.75 23C13.0625 23 14.3375 22.775 15.5 22.3625V1.1375C14.3375 0.725 13.1 0.5 11.75 0.5C10.4 0.5 9.1625 0.725 8 1.1375V22.3625Z" fill="white"/>
</svg>
