<svg width="23" height="23" viewBox="0 0 23 23" fill="none" xmlns="http://www.w3.org/2000/svg">
<path d="M0.5 11.5C0.5 16.4125 3.65 20.575 8 22.1125V0.8875C3.65 2.425 0.5 6.5875 0.5 11.5Z" fill="#75A843"/>
<path d="M23 11.5C23 6.5875 19.85 2.425 15.5 0.8875V22.1125C19.8875 20.575 23 16.4125 23 11.5Z" fill="#ED4C5C"/>
<path d="M8 22.1125C9.1625 22.525 10.4375 22.75 11.75 22.75C13.0625 22.75 14.3375 22.525 15.5 22.1125V0.8875C14.3375 0.475 13.0625 0.25 11.75 0.25C10.4375 0.25 9.1625 0.475 8 0.8875V22.1125Z" fill="white"/>
</svg>
