<svg width="37" height="32" viewBox="0 0 37 32" fill="none" xmlns="http://www.w3.org/2000/svg">
<path d="M9.07261 6.6239C5.4516 6.27063 6.15814 12.4529 9.86747 10.5099C7.92449 10.4216 7.83617 9.36174 7.92448 8.74352C8.0128 8.1253 8.36607 7.68371 8.9843 7.59539C9.86747 7.50707 10.3091 7.94866 10.6623 8.56688C10.839 7.24212 9.69083 6.6239 9.07261 6.6239Z" fill="#F4AC45"/>
<path d="M9.5142 23.5809C9.5142 23.4042 9.33756 23.3159 9.24925 23.3159C9.07261 23.3159 8.89598 23.4925 8.89598 23.6692C8.89598 23.7575 8.89598 23.7575 8.9843 23.8458C8.18944 24.1991 7.65953 25.1706 8.0128 26.1421C7.92449 26.2304 7.83617 26.407 7.83617 26.5837C7.83617 26.9369 8.10112 27.2019 8.45439 27.2019C8.54271 27.2019 8.63103 27.2019 8.71934 27.1136C9.16093 27.4668 10.1324 27.7318 10.839 27.3785C10.0441 27.2902 9.42588 26.8486 9.07261 26.407C9.07261 26.3187 8.9843 26.3187 8.9843 26.2304C8.71934 25.7005 8.89598 25.1706 9.60252 24.9056C10.4857 24.464 11.2805 25.0823 11.8105 26.1421C12.3404 24.0224 10.7506 23.3159 9.5142 23.5809Z" fill="#F4AC45"/>
<path d="M11.3689 13.9543C11.5455 13.4243 11.8105 13.601 12.252 13.4243C9.86747 12.8061 10.3974 16.2505 12.517 15.3673C12.8703 15.1024 13.0469 14.6608 12.9586 14.0426C12.7819 14.9257 11.2806 15.3673 11.3689 13.9543Z" fill="#F4AC45"/>
<path d="M13.4885 6.6239C12.6053 5.65241 13.0469 5.21082 13.7534 5.03419C14.3717 5.03419 14.5483 5.29914 14.9016 5.91736C15.6964 4.06269 13.0469 3.6211 12.4287 4.94587C11.9871 5.74072 12.6053 6.44726 13.4885 6.6239Z" fill="#F4AC45"/>
<path d="M14.8133 21.3729C14.8133 21.2846 14.9016 21.1963 14.9016 21.108C14.9016 20.6664 14.5483 20.4014 14.195 20.4014C13.8418 20.4014 13.4885 20.7547 13.4885 21.108C13.4885 21.4612 13.7534 21.7262 14.1067 21.8145C13.8418 22.1678 13.8418 22.6977 14.2833 23.4042C14.195 22.786 14.8132 21.8145 15.4315 22.4327C15.8731 22.9626 15.5198 23.4042 15.0782 23.8458C15.9614 23.7575 16.5796 23.051 16.403 22.3444C16.2263 21.5496 15.4315 21.2846 14.8133 21.3729Z" fill="#F4AC45"/>
<path d="M18.4343 25.6122C16.6679 25.6122 15.4315 27.8201 16.8446 29.1449C17.0212 29.3215 17.9044 29.7631 18.5226 29.4981C17.3745 29.4098 16.5796 28.1734 17.6394 27.2019C18.9642 26.407 19.8473 27.7318 20.024 28.7916C21.4371 27.3785 19.9357 25.6122 18.4343 25.6122Z" fill="#F4AC45"/>
<path d="M17.4628 16.957C17.7277 17.3986 18.6992 17.7519 19.0525 17.1337C17.3745 16.4271 18.081 15.4556 19.0525 15.544C19.4941 15.7206 19.759 16.0739 19.9357 16.5155C20.5539 14.0426 16.138 14.5725 17.4628 16.957Z" fill="#F4AC45"/>
<path d="M25.2347 15.6323C25.8529 15.544 26.0296 15.8089 26.2062 16.1622C26.6478 15.1907 25.588 14.3958 24.5282 15.1907C23.7333 15.8089 24.1749 17.222 25.323 17.1337C24.7931 16.6921 24.7048 15.8089 25.2347 15.6323Z" fill="#F4AC45"/>
<path d="M25.323 4.76923C23.91 4.76923 23.1151 6.88885 25.323 7.41876C24.6165 6.80053 24.4399 5.91736 25.323 5.65241C26.0296 5.65241 26.1179 6.27063 26.2062 6.6239C26.9127 5.56409 26.1179 4.76923 25.323 4.76923Z" fill="#F4AC45"/>
<path d="M28.0609 22.6094C27.3543 21.5496 25.4997 22.6977 26.3828 23.8458C26.4712 23.4042 26.5595 23.051 26.8244 23.051C27.3543 22.9626 27.6193 23.7575 26.8244 24.2874C27.7076 24.1991 28.5908 23.6692 28.0609 22.6094Z" fill="#F4AC45"/>
<path d="M5.01001 19.6066C4.83337 19.6066 4.65674 19.6949 4.56842 19.7832C4.56842 19.6949 4.65674 19.6066 4.65674 19.5183C4.65674 19.165 4.4801 18.9883 4.21515 18.9883C3.9502 18.9883 3.77356 19.2533 3.77356 19.5183C3.77356 19.7832 3.9502 20.0482 4.21515 20.0482C3.59693 20.843 3.9502 22.2561 4.74506 22.2561C3.50861 21.108 5.62823 19.6066 6.15814 21.1963C6.15814 21.6379 6.06982 21.9911 5.80487 22.0795C7.4829 21.6379 6.59972 19.3416 5.01001 19.6066Z" fill="#F4AC45"/>
<path d="M15.1665 9.18511C16.5796 8.74352 17.4628 10.3332 17.9927 11.4814C18.4343 9.89165 17.5511 8.6552 16.5796 8.30193C14.2833 7.59539 11.7221 10.1566 13.3119 12.5412C13.7534 13.2477 15.3432 14.0426 16.403 12.8944C13.5768 13.0711 13.3119 9.71501 15.1665 9.18511Z" fill="#F4AC45"/>
<path d="M20.9072 3.79774C18.8759 2.91456 17.1978 5.29914 18.8759 6.18231C18.081 4.50428 20.5539 4.32764 20.5539 5.56409C20.5539 6.18231 20.2006 6.35895 19.759 6.53558C21.4371 6.80053 22.2319 4.5926 20.9072 3.79774Z" fill="#F4AC45"/>
<path d="M34.9496 7.24212C31.4169 2.11971 22.2319 -0.529817 14.6366 0.0884054C10.1324 0.441675 5.62823 1.94307 3.33198 4.23933C0.859086 6.53558 0.505816 10.9515 0.152546 16.1622C0.0642285 17.8402 0.240864 22.3444 0.770769 23.4042C2.97871 27.5551 7.74785 29.8514 11.9871 30.9995C15.3432 31.8827 19.3174 32.5009 23.1151 31.4411C23.4684 27.3785 23.645 24.8173 23.38 20.4897C23.1151 17.0454 21.702 12.5412 20.2889 9.36174C26.5595 13.5127 30.5338 16.7804 30.4454 17.8402C30.2688 20.4014 30.0922 24.1108 29.2973 26.9369C27.8842 26.5837 26.4712 25.7888 24.3515 25.0823C26.3828 26.672 28.4141 27.9967 30.3571 29.2332C31.5053 27.4668 33.3599 24.0224 34.2431 20.843C35.7445 16.5155 37.3342 10.5982 34.9496 7.24212ZM18.9642 7.77203C19.8473 11.0398 21.2604 14.5725 21.8787 18.9C22.4086 22.6977 21.967 26.7603 21.702 30.1164C15.3432 31.4411 5.62823 28.0851 2.53712 23.2276C1.83058 22.1678 1.38899 17.5753 2.09553 12.6295C5.9815 18.1052 12.6936 20.4897 20.6422 20.3131C10.6623 18.7234 6.42309 14.8374 4.74506 12.4529C3.50861 10.7748 3.06702 8.83184 4.30347 6.35895C5.80487 3.35615 12.1637 1.94307 16.4913 1.94307C22.4086 1.85476 29.5623 3.79774 32.6534 7.06549C33.3599 7.77203 34.2431 9.09679 34.4197 9.89165C35.1263 12.4529 33.0067 14.5725 31.9468 15.7206C27.7959 12.8944 24.4399 10.4216 18.9642 7.77203ZM31.152 26.407C31.8585 23.4042 32.1235 20.7547 32.3001 17.7519C32.3001 17.7519 33.6249 15.544 35.038 13.5127C34.6847 16.5155 33.6249 22.0795 31.152 26.407Z" fill="#F4AC45"/>
<path d="M28.1492 17.487C27.9726 17.487 27.3543 17.487 26.8244 17.9285C25.8529 18.7234 25.7646 20.4897 27.266 20.7547C26.8244 20.1365 26.7361 19.4299 27.0894 18.9883C27.7076 18.1935 29.474 18.6351 28.9441 20.4014C30.5338 19.5183 29.474 17.487 28.1492 17.487Z" fill="#F4AC45"/>
<path d="M30.7104 6.88885C28.9441 6.27063 27.7076 7.06549 27.3543 8.1253C27.266 8.1253 27.1777 8.21361 27.1777 8.30193C27.1777 8.39025 27.1777 8.39025 27.266 8.47857C27.1777 9.27342 27.531 10.0683 28.5025 10.4216C26.6478 7.68371 31.3286 6.80054 30.887 9.45006C30.7104 10.1566 30.2688 10.4216 30.0039 10.7748C32.0352 10.5982 32.4767 7.77203 30.7104 6.88885Z" fill="#F4AC45"/>
<path d="M6.86468 18.9C6.68804 18.9 6.59972 18.9883 6.59972 19.165C6.59972 19.3416 6.68804 19.4299 6.86468 19.4299C7.04131 19.4299 7.12963 19.3416 7.12963 19.165C7.12963 19.0767 6.95299 18.9 6.86468 18.9Z" fill="#F4AC45"/>
<path d="M9.42588 13.9543C9.24925 13.9543 9.07261 14.1309 9.07261 14.3075C9.07261 14.4842 9.24925 14.6608 9.42588 14.6608C9.60252 14.6608 9.77915 14.4842 9.77915 14.3075C9.77915 14.1309 9.69083 13.9543 9.42588 13.9543Z" fill="#F4AC45"/>
<path d="M7.04131 6.97717C7.21795 6.97717 7.39458 6.80053 7.39458 6.6239C7.39458 6.44726 7.21795 6.27063 7.04131 6.27063C6.86468 6.27063 6.68804 6.44726 6.68804 6.6239C6.77636 6.80053 6.86468 6.97717 7.04131 6.97717Z" fill="#F4AC45"/>
<path d="M26.8244 10.5099C26.4712 10.5099 26.2062 10.7748 26.2062 11.0398C26.2062 11.3047 26.4712 11.5697 26.8244 11.5697C27.1777 11.5697 27.4427 11.3047 27.4427 11.0398C27.4427 10.7748 27.1777 10.5099 26.8244 10.5099Z" fill="#F4AC45"/>
<path d="M19.8473 6.71222C19.4941 6.71222 19.2291 7.06549 19.2291 7.41876C19.2291 7.86034 19.4941 8.1253 19.8473 8.1253C20.2006 8.1253 20.4656 7.77203 20.4656 7.41876C20.5539 6.97717 20.2889 6.71222 19.8473 6.71222Z" fill="#F4AC45"/>
<path d="M19.5824 19.6949C19.5824 19.8715 19.6707 19.9598 19.8473 19.9598C19.9357 19.9598 20.1123 19.8715 20.1123 19.6949C20.1123 19.5183 20.024 19.4299 19.8473 19.4299C19.6707 19.4299 19.5824 19.5183 19.5824 19.6949Z" fill="#F4AC45"/>
<path d="M16.2263 6.00568C16.3146 6.00568 16.403 5.91736 16.403 5.74072C16.403 5.56409 16.3146 5.47577 16.2263 5.47577C16.138 5.47577 16.0497 5.56409 16.0497 5.74072C16.0497 5.91736 16.138 6.00568 16.2263 6.00568Z" fill="#F4AC45"/>
</svg>
