<svg width="42" height="26" viewBox="0 0 42 26" fill="none" xmlns="http://www.w3.org/2000/svg">
<path d="M40.9699 10.1139C40.8699 9.91392 39.6699 10.5139 37.7699 11.3139C37.6699 8.61392 36.6699 1.71392 29.7699 3.91392C28.3699 4.31392 27.7699 5.01392 27.4699 5.61392L28.2699 1.11392H26.2699L26.6699 6.41392C26.5699 6.41392 26.5699 6.31392 26.4699 6.31392C26.5699 6.31392 26.5699 6.21392 26.5699 6.11392C22.9699 3.91392 16.4699 0.013916 16.4699 0.013916C16.7699 3.01392 18.5699 4.71392 20.6699 5.61392C20.3699 5.71392 20.1699 5.81392 19.8699 5.91392C15.4699 7.91392 16.6699 13.3139 17.0699 14.7139C15.3699 13.8139 13.4699 12.4139 11.3699 9.81392C9.76992 7.91392 8.26992 6.61392 6.86992 6.11392C6.46992 5.91392 5.66992 3.41392 4.86992 2.51392C4.26992 1.91392 3.56992 2.71392 3.26992 2.81392C2.66992 2.91392 3.66992 6.31392 3.06992 6.81392C0.769922 8.81392 2.06992 12.3139 3.76992 15.0139C4.06992 15.5139 4.46992 16.0139 4.96992 16.6139C4.46992 17.1139 4.36992 17.8139 4.36992 18.4139C4.06992 16.7139 2.26992 15.3139 2.26992 15.3139C2.26992 15.3139 4.06992 17.7139 3.66992 19.3139C3.16992 18.4139 1.86992 16.1139 2.26992 15.3139C2.26992 15.3139 1.56992 16.8139 2.16992 18.2139C1.66992 18.2139 0.969922 18.4139 0.169922 18.9139L3.46992 19.8139C2.46992 21.4139 0.169922 18.9139 0.169922 18.9139C0.869922 21.0139 1.86992 21.2139 2.76992 21.0139C1.56992 22.2139 2.36992 24.4139 3.56992 25.1139C6.66992 26.7139 13.1699 25.9139 13.8699 24.3139C14.0699 23.9139 14.0699 23.2139 13.8699 22.5139C15.0699 23.0139 16.4699 23.4139 17.8699 23.7139C20.9699 24.5139 23.9699 24.6139 26.4699 24.3139C27.6699 24.3139 30.7699 24.2139 33.3699 23.6139C35.6699 23.1139 36.7699 20.6139 37.1699 19.1139C39.3699 16.4139 41.7699 12.4139 40.9699 10.1139ZM26.6699 7.21392L26.8699 7.11392C27.5699 7.41392 28.0699 7.71392 28.0699 7.71392C28.0699 7.71392 27.7699 7.41392 27.2699 6.91392C27.3699 6.81392 31.1699 2.71392 35.2699 6.91392C36.4699 8.11392 36.5699 10.5139 36.5699 11.9139C34.2699 13.0139 31.3699 14.2139 28.2699 15.1139C26.0699 14.5139 22.8699 12.7139 23.1699 10.2139C23.6699 6.81392 25.3699 6.71392 26.6699 7.11392V7.21392ZM3.86992 23.6139C3.66992 23.6139 3.56992 23.5139 3.56992 23.3139C3.56992 23.1139 3.66992 23.0139 3.86992 23.0139C4.06992 23.0139 4.16992 23.1139 4.16992 23.3139C4.16992 23.4139 4.06992 23.5139 3.86992 23.6139ZM3.56992 20.5139C3.76992 20.3139 3.96992 20.2139 3.96992 20.2139C4.16992 19.8139 4.26992 19.4139 4.26992 19.0139C4.36992 19.8139 4.66992 20.4139 4.66992 20.4139C4.26992 20.4139 3.86992 20.5139 3.56992 20.5139ZM6.86992 23.2139C6.46992 23.2139 6.06992 22.9139 5.96992 22.5139C5.96992 22.1139 6.26992 21.7139 6.66992 21.7139C7.06992 21.7139 7.46992 22.0139 7.56992 22.4139C7.66992 22.8139 7.26992 23.2139 6.86992 23.2139ZM9.36992 20.7139C9.16992 20.7139 8.96992 20.6139 8.96992 20.3139V20.2139C9.16992 20.3139 9.36992 20.5139 9.56992 20.6139C9.46992 20.6139 9.36992 20.6139 9.36992 20.7139ZM16.4699 22.2139C15.0699 21.7139 13.7699 21.1139 12.7699 20.5139C11.5699 18.3139 9.56992 16.2139 7.26992 15.9139C5.36992 13.4139 5.16992 11.1139 4.96992 10.0139C4.66992 7.31392 7.56992 13.5139 12.0699 16.0139C18.6699 19.6139 11.1699 14.9139 9.46992 12.7139C7.76992 10.4139 6.26992 7.31392 6.26992 7.31392C8.06992 6.41392 14.4699 14.1139 15.3699 14.7139C17.9699 16.5139 22.4699 19.3139 33.5699 14.6139C34.7699 14.1139 38.5699 11.6139 39.7699 11.8139C39.2699 12.3139 37.2699 14.7139 34.7699 16.3139C31.5699 18.3139 27.0699 19.2139 27.0699 19.2139C27.0699 19.2139 35.1699 20.7139 39.7699 11.9139C39.7699 11.9139 39.7699 11.9139 39.7699 11.8139C39.8699 11.8139 39.9699 11.9139 39.9699 12.0139C40.5699 13.0139 37.3699 17.8139 34.3699 19.7139C28.2699 23.6139 21.2699 24.0139 16.4699 22.2139Z" fill="#F4AC45"/>
<path d="M26.5699 6.21392C25.2699 -0.986084 16.4699 0.113916 16.4699 0.113916C23.3699 -0.386084 26.5699 6.21392 26.5699 6.21392Z" fill="#F4AC45"/>
</svg>
