<svg width="42" height="32" viewBox="0 0 42 32" fill="none" xmlns="http://www.w3.org/2000/svg">
<path d="M40.4227 15.2271C37.7112 13.0049 31.3845 11.7928 24.0536 11.7928C21.7439 11.7928 14.8147 11.5908 7.98589 13.1059C4.57149 13.914 1.35794 15.5301 0.855824 17.2473C0.253283 19.3685 3.66768 23.3078 23.3507 23.3078C32.3888 23.3078 38.2133 21.2877 40.1214 19.6715C42.3307 18.1564 41.7282 16.2372 40.4227 15.2271ZM39.7197 17.5503C39.4184 18.4594 36.707 22.7018 16.0198 21.6917C10.9986 21.3887 4.47107 19.8735 3.26599 18.1564C2.16133 16.5402 5.57573 15.3281 7.28292 14.7221C13.3083 12.8029 24.857 12.7019 30.9829 13.409C37.0083 14.116 40.2218 15.8332 39.7197 17.5503Z" fill="#F4AC45"/>
<path d="M14.0113 3.51006C15.3168 3.40906 16.5219 3.30805 17.6265 3.20704C22.8486 2.90401 27.1668 2.90401 32.4892 3.61107C34.1964 3.81309 36.004 4.52015 37.1087 4.92419C37.9121 5.22722 39.1172 5.93428 39.0167 6.64134C38.9163 7.14639 38.4142 7.55043 37.41 7.65143C33.4934 8.15648 25.3591 3.51006 15.4172 5.73226C13.5092 6.1363 10.9986 7.2474 11.2999 8.45951C11.5007 9.26758 13.5092 9.16657 14.6138 9.06556C17.3253 8.86354 19.5346 8.66153 21.9447 8.86354C22.5473 8.86354 24.1541 9.06556 24.0536 9.67162C23.9532 10.4797 21.2418 10.0757 20.1371 10.0757C21.6435 10.6817 25.0579 10.8837 25.3591 9.77262C25.4596 8.45951 22.7481 8.3585 20.7397 8.3585C18.6308 8.3585 17.024 8.66153 15.4172 8.56052C14.8147 8.56052 14.0113 8.3585 13.9109 7.95446C13.8104 7.34841 15.116 6.94437 16.0198 6.64134C17.6265 6.23731 19.1329 6.03529 20.9405 6.03529C22.7481 6.03529 24.857 6.23731 26.5642 6.74235C29.1752 7.44942 31.6858 8.66153 34.3973 9.16657C36.5061 9.4696 39.5188 9.57061 40.7239 8.25749C41.8286 7.04538 40.9248 5.93428 39.8201 5.12621C37.41 3.40905 33.1922 2.803 30.5812 2.60098C28.171 2.39896 24.9574 2.29796 22.0452 2.39896C16.8232 2.60098 12.0028 3.00502 12.2037 1.99493C12.7058 0.580802 17.4257 -0.0252522 20.338 0.681811C17.2248 -0.530297 11.1994 -0.126261 10.1952 1.89392C9.29139 3.61107 12.5049 3.61107 14.0113 3.51006Z" fill="#F4AC45"/>
<path d="M17.024 30.4795C16.4215 30.3785 15.3168 30.1765 15.5176 29.7724C15.5176 29.5704 18.3295 30.0754 21.6435 29.9744C24.3549 29.9744 27.7693 29.2674 29.1752 28.3583C26.5642 28.9643 16.9236 29.9744 9.29139 27.5502C12.0028 30.6815 16.0198 31.9946 20.8401 31.9946C24.7566 32.0956 29.8782 30.7825 33.0917 27.4492C29.1752 29.8734 23.6519 31.3886 17.024 30.4795Z" fill="#F4AC45"/>
<path d="M12.7058 26.4391C11.5007 26.2371 9.19097 25.631 1.45836 20.0755C6.17827 27.4492 14.0113 27.7522 19.1329 28.0553C23.5515 28.2573 35.3011 28.0553 40.2218 21.4897C33.0918 27.8532 19.0325 27.9543 12.7058 26.4391Z" fill="#F4AC45"/>
<path d="M36.5061 16.1362C37.2091 16.5402 37.5104 16.6412 37.6108 17.1463C37.7112 17.7523 37.0083 18.1564 36.2049 18.4594C35.4015 18.1564 31.7862 16.7423 23.7524 16.7423C18.932 16.7423 13.9109 17.5503 11.7016 18.2574C11.1994 17.8533 11.099 17.4493 11.1994 17.1463C11.7016 15.2271 23.7524 14.116 35.5019 15.2271C26.8655 12.8029 12.8062 13.914 8.68885 15.1261C7.38335 15.5301 6.17827 15.9342 5.57573 16.4392C4.47107 17.3483 5.07361 18.3584 6.07784 18.8634C10.3961 20.8836 19.635 21.0856 22.5473 21.0856C34.5981 20.8836 38.3138 19.0655 38.4142 17.6513C38.4142 16.7423 37.41 16.2372 36.5061 16.1362Z" fill="#F4AC45"/>
</svg>
