<?xml version="1.0" encoding="UTF-8"?><svg id="Calque_2" xmlns="http://www.w3.org/2000/svg" viewBox="0 0 176.11 220.98"><defs><style>.cls-1{fill:#f5ac45;}.cls-2{fill:#fff;}.cls-3{fill:#fc0;}</style></defs><g id="Calque_2-2"><path class="cls-1" d="M41.78,141.29s36.26-26.53,87.13,5.79c0,0,2.61-12.36,.99-19.2s-29.44-35.12-87.53-5.28l-.58,18.69Z"/><path class="cls-1" d="M42.36,120.24s-10.71-46.84-30.47-57.38S-3.29,14.94,27.69,12.32c30.98-2.62,28.79,21.6,28.79,21.6,0,0,2.38-41.64,44.04-32.64,33.71,7.28,15.24,38.7,15.24,38.7,0,0,19.47-29.15,46.8-10.08,19.93,13.91,13.37,28.14,8.36,34.83-1.35,1.8-2.93,3.4-4.67,4.83-4.59,3.79-21.88,19.78-36.36,55.97,0,0-22.7-34-87.53-5.28Z"/><path class="cls-1" d="M112.86,159.43c.58,.54,1.09,1.17,1.45,1.86,.58,1.07,.75,2.31,.9,3.52,.28,2.35,.94,5.31,.16,7.64-.65,1.94-2.18,3.76-4.21,4.28-2.28,.58-5.02,.95-7.19-.18-2.15-1.11-3.54-3.31-4.13-5.6-.86-3.35-2.23-7.62,.64-10.39,1.67-1.61,4.09-2.71,6.41-2.76,2.21-.05,4.3,.05,5.98,1.63Z"/><circle class="cls-2" cx="106.53" cy="167.44" r="2.73"/><path class="cls-1" d="M56.87,159.96c-.58,.54-1.09,1.17-1.45,1.86-.58,1.07-.75,2.31-.9,3.52-.28,2.35-.94,5.31-.16,7.64,.65,1.94,2.18,3.76,4.21,4.28,2.28,.58,5.02,.95,7.19-.18,2.15-1.11,3.54-3.31,4.13-5.6,.86-3.35,2.23-7.62-.64-10.39-1.67-1.61-4.09-2.71-6.41-2.76-2.21-.05-4.3,.05-5.98,1.63Z"/><circle class="cls-2" cx="63.2" cy="167.97" r="2.73"/><path class="cls-1" d="M49,146.33c3.13,4.44,7.41,2.54,11.64,1.4,2.04-.51,4.49-1.55,6.69-1.39,2.64,.1,4.93,2.31,5.05,4.66l-.19,.06c-1.97-3.1-4.88-2.99-7.93-2.3,0,0-3.27,.54-3.27,.54-2,.29-4.63,1.01-6.69,.87-2.38-.21-4.52-1.7-5.48-3.74l.17-.1h0Z"/><path class="cls-1" d="M80.23,185.95c.59,1.52,2.07,2.08,3.32,2.94,4.82,3.32,7.28,1.66,11.35-1.73-2.29,5.7-7.78,7.47-12.29,2.96-1.1-1.06-2.66-2.47-2.37-4.18h0Z"/><path class="cls-1" d="M35.84,197.55s10.81,11.51,26.65,.61c4.57-3.14,14.12-3.99,17.9,.85s.48,11.45-3.35,14.86c-6.91,6.15-17.68,9.1-26.54,5.65-7.34-2.86-13.49-9.7-14.61-17.63-.2-1.44-.23-2.9-.05-4.34Z"/><path class="cls-1" d="M134.09,197.55s-10.81,11.51-26.65,.61c-4.57-3.14-14.12-3.99-17.9,.85s-.48,11.45,3.35,14.86c6.91,6.15,17.68,9.1,26.54,5.65,7.34-2.86,13.49-9.7,14.61-17.63,.2-1.44,.23-2.9,.05-4.34Z"/><path class="cls-3" d="M38.02,20.15c2.26,.42,4.56,1.08,6.29,2.59,.83,.72,1.48,1.68,1.85,2.71,.4,1.13,.44,2.36-.03,3.46-1.22,2.85-11.66-6.68-12.03-9.02,1.33-.22,2.56,0,3.93,.25Z"/><path class="cls-3" d="M106.35,11.78c3.47,2.15,5.69,6.16,5.68,10.24,0,2.73-.94,5.36-1.91,7.91-.24,.63-.54,1.33-1.17,1.59-1.54,.64-2.45-1.75-2.4-3.42,.1-3.66,.2-7.32,.3-10.98,.03-1.19,.06-2.42-.41-3.52s-1.58-2.01-2.76-1.85"/><path class="cls-3" d="M162.36,41.56c2.19-.82,3.9,1.98,4.48,4.24,.84,3.27,1.44,6.78,.36,9.98s-4.37,5.88-7.68,5.17c.63-5.67,1.26-11.35,1.89-17.02,.13-1.19,.55-2.69,1.74-2.83"/></g></svg>